<?xml version="1.0" encoding="UTF-8"?>
<svg id="Layer_2" data-name="Layer 2" xmlns="http://www.w3.org/2000/svg" viewBox="0 0 138.3 97.45">
  <defs>
    <style>
      .cls-1 {
        fill: #1e1e1e;
      }

      .cls-1, .cls-2, .cls-3, .cls-4 {
        stroke-width: 0px;
      }

      .cls-5 {
        stroke: #000;
      }

      .cls-5, .cls-6, .cls-7, .cls-8 {
        stroke-miterlimit: 10;
      }

      .cls-5, .cls-6, .cls-8 {
        fill: none;
      }

      .cls-6, .cls-7, .cls-8 {
        stroke: #232323;
      }

      .cls-2, .cls-7 {
        fill: #232323;
      }

      .cls-7, .cls-8 {
        stroke-width: 2px;
      }

      .cls-3 {
        fill: #f0f;
      }

      .cls-4 {
        fill: #fff;
      }
    </style>
  </defs>
  <g id="Layer_7" data-name="Layer 7">
    <path class="cls-4" d="M34.13,3.04s-1.41-3.85-5.04-2.89c-3.56.59-4.15,1.33-4.15,1.33,0,0-3.26,5.7-3.04,8.22s13.85-2.96,12.22-6.67Z"/>
    <path class="cls-4" d="M101.59,3.04s1.41-3.85,5.04-2.89c3.56.59,4.15,1.33,4.15,1.33,0,0,3.26,5.7,3.04,8.22s-13.85-2.96-12.22-6.67Z"/>
  </g>
  <g id="Layer_6" data-name="Layer 6">
    <path class="cls-2" d="M52.48,5.63S46.17-.04,39.11.28c-2.46,0-18.29,4.28-19.47,10.37s31.66.21,32.84-5.03Z"/>
    <path class="cls-2" d="M82.95,5.63S89.26-.04,96.32.28c2.46,0,18.29,4.28,19.47,10.37,1.18,6.1-31.66.21-32.84-5.03Z"/>
  </g>
  <g id="Layer_2-2" data-name="Layer 2">
    <path class="cls-3" d="M47.31,70.49h41.79s12.12-.54,16.1,6.33c3.98,6.87,15.56,23.88,22.25,20.08,6.46-1.65,14.47-12.82,9.05-36.54-6.69-25.87-7.6-54.46-36.73-54.64h-53.19s-21.89-2.35-29.31,13.21c-2.71,7.24-30.76,74.17,0,78.34,5.59.3,13.03-11.22,14.65-14.47,1.99-3.26,9.41-13.03,15.38-12.3Z"/>
    <path class="cls-4" d="M44.32,68.5h41.79s12.12-.54,16.1,6.33,15.56,23.88,22.25,20.08c6.46-1.65,14.47-12.82,9.05-36.54-6.69-25.87-7.6-54.46-36.73-54.64h-53.19S21.71,1.38,14.29,16.94c-2.71,7.24-30.76,74.17,0,78.34,5.59.3,13.03-11.22,14.65-14.47,1.99-3.26,9.41-13.03,15.38-12.3Z"/>
  </g>
  <g id="Layer_4" data-name="Layer 4">
    <g id="Layer_3" data-name="Layer 3">
      <path class="cls-1" d="M57.98,46.48h-5.22v-5.26c-4.01-1.76-6.95.09-6.95.09v5.17h-5.26c-1.76,4.01.09,6.95.09,6.95h5.17v5.4c4.08,1.48,6.95-.19,6.95-.19v-5.22h5.4c1.48-4.08-.19-6.95-.19-6.95Z"/>
      <ellipse class="cls-5" cx="49.16" cy="50.01" rx="11.21" ry="11.1"/>
    </g>
    <g>
      <ellipse class="cls-6" cx="31.97" cy="27.01" rx="11.21" ry="11.1"/>
      <circle class="cls-8" cx="32.02" cy="26.9" r="8.36"/>
      <circle class="cls-7" cx="32.02" cy="26.9" r="4.31"/>
    </g>
    <g>
      <ellipse class="cls-6" cx="85.74" cy="47.39" rx="11.21" ry="11.1"/>
      <circle class="cls-8" cx="85.79" cy="47.29" r="8.36"/>
      <circle class="cls-7" cx="85.79" cy="47.29" r="4.31"/>
    </g>
  </g>
  <g id="Layer_5" data-name="Layer 5">
    <circle class="cls-7" cx="104.28" cy="17.78" r="4.62"/>
    <circle class="cls-7" cx="104.28" cy="36.11" r="4.62"/>
    <circle class="cls-7" cx="93.99" cy="27.28" r="4.62"/>
    <circle class="cls-7" cx="114.28" cy="27.28" r="4.62"/>
    <circle class="cls-7" cx="77.87" cy="27.41" r="3.1"/>
    <circle class="cls-7" cx="58.05" cy="27.41" r="3.1"/>
    <ellipse class="cls-7" cx="68.33" cy="34.37" rx="4.41" ry="1.06"/>
  </g>
</svg>