<?xml version="1.0" encoding="UTF-8"?>
<svg id="Layer_2" data-name="Layer 2" xmlns="http://www.w3.org/2000/svg" viewBox="0 0 17.28 16.88">
  <defs>
    <style>
      .cls-1 {
        fill: #f0f;
      }

      .cls-1, .cls-2 {
        stroke-width: 0px;
      }

      .cls-2 {
        fill: #fff;
      }
    </style>
  </defs>
  <g id="Layer_8" data-name="Layer 8">
    <path class="cls-1" d="M4.47,16.88h8.54v-6.72s4.26.54,4.26-2.37c0-2.29-2.28-2.14-2.28-2.14H2.57s-1.98.14-1.98,2.28,2.37,2.23,3.8,2.23l.08,6.72Z"/>
    <path class="cls-2" d="M3.88,16.24h8.54v-6.72s3.9.37,3.9-2.37c0-2.29-1.93-2.14-1.93-2.14H1.98s-1.98-.3-1.98,2.28,2.37,2.23,3.8,2.23l.08,6.72Z"/>
    <polygon class="cls-1" points="5.1 .92 8.83 4.65 13.42 .22 5.1 .92"/>
    <polygon class="cls-2" points="4.5 .7 8.23 4.43 12.82 0 4.5 .7"/>
  </g>
</svg>