<?xml version="1.0" encoding="UTF-8"?>
<svg id="Layer_2" data-name="Layer 2" xmlns="http://www.w3.org/2000/svg" viewBox="0 0 49.83 6.31">
  <defs>
    <style>
      .cls-1 {
        fill: #f0f;
      }

      .cls-1, .cls-2 {
        stroke-width: 0px;
      }

      .cls-2 {
        fill: #fff;
      }
    </style>
  </defs>
  <g id="Layer_8" data-name="Layer 8">
    <path class="cls-1" d="M46.88.42c-1.44,0-2.63,1.03-2.89,2.39H6.45c-.26-1.36-1.46-2.39-2.89-2.39C1.93.42.61,1.74.61,3.37s1.32,2.95,2.95,2.95c1.4,0,2.56-.98,2.87-2.28h37.59c.3,1.31,1.47,2.28,2.87,2.28,1.63,0,2.95-1.32,2.95-2.95s-1.32-2.95-2.95-2.95Z"/>
    <path class="cls-2" d="M46.27,0c-1.44,0-2.63,1.03-2.89,2.39H5.84c-.26-1.36-1.46-2.39-2.89-2.39C1.32,0,0,1.32,0,2.95s1.32,2.95,2.95,2.95c1.4,0,2.56-.98,2.87-2.28h37.59c.3,1.31,1.47,2.28,2.87,2.28,1.63,0,2.95-1.32,2.95-2.95s-1.32-2.95-2.95-2.95Z"/>
  </g>
</svg>