<?xml version="1.0" encoding="UTF-8"?>
<svg id="Layer_2" data-name="Layer 2" xmlns="http://www.w3.org/2000/svg" viewBox="0 0 51.79 24.12">
  <defs>
    <style>
      .cls-1 {
        fill: #f0f;
      }

      .cls-1, .cls-2 {
        stroke-width: 0px;
      }

      .cls-2 {
        fill: #fff;
      }
    </style>
  </defs>
  <g id="Layer_8" data-name="Layer 8">
    <path class="cls-1" d="M49.81,18.42V4.01h0v-1.44H6.17c-.37-1.19-1.47-2.06-2.79-2.06C1.76.51.45,1.82.45,3.45s1.32,2.94,2.94,2.94c1.43,0,2.62-1.02,2.88-2.37h41.84v14.34c-1.26.33-2.19,1.47-2.19,2.83,0,1.62,1.32,2.94,2.94,2.94s2.94-1.32,2.94-2.94c0-1.29-.83-2.37-1.98-2.76Z"/>
    <path class="cls-2" d="M49.37,17.91V3.5h0v-1.44H5.73c-.37-1.19-1.47-2.06-2.79-2.06C1.32,0,0,1.32,0,2.94s1.32,2.94,2.94,2.94c1.43,0,2.62-1.02,2.88-2.37h41.84v14.34c-1.26.33-2.19,1.47-2.19,2.83,0,1.62,1.32,2.94,2.94,2.94s2.94-1.32,2.94-2.94c0-1.29-.83-2.37-1.98-2.76Z"/>
  </g>
</svg>