<?xml version="1.0" encoding="UTF-8"?>
<svg id="Layer_2" data-name="Layer 2" xmlns="http://www.w3.org/2000/svg" viewBox="0 0 62.37 65.77">
  <defs>
    <style>
      .cls-1 {
        fill: #f0f;
      }

      .cls-1, .cls-2 {
        stroke-width: 0px;
      }

      .cls-2 {
        fill: #fff;
      }
    </style>
  </defs>
  <g id="Layer_8" data-name="Layer 8">
    <path class="cls-1" d="M59.19,59.4c-1.5,0-2.76,1.05-3.09,2.45H4.57V6.96c1.42-.32,2.47-1.58,2.47-3.1,0-1.76-1.42-3.18-3.18-3.18S.68,2.11.68,3.87c0,1.45.98,2.66,2.3,3.04v56.38h.19s52.92,0,52.92,0c.32,1.42,1.58,2.48,3.1,2.48,1.76,0,3.18-1.42,3.18-3.18s-1.42-3.18-3.18-3.18Z"/>
    <path class="cls-2" d="M58.51,58.72c-1.5,0-2.76,1.05-3.09,2.45H3.89V6.28c1.42-.32,2.47-1.58,2.47-3.1,0-1.76-1.42-3.18-3.18-3.18S0,1.42,0,3.18c0,1.45.98,2.66,2.3,3.04v56.38h.19s52.92,0,52.92,0c.32,1.42,1.58,2.48,3.1,2.48,1.76,0,3.18-1.42,3.18-3.18s-1.42-3.18-3.18-3.18Z"/>
  </g>
</svg>