<?xml version="1.0" encoding="UTF-8"?>
<svg id="Layer_2" data-name="Layer 2" xmlns="http://www.w3.org/2000/svg" viewBox="0 0 68.9 107.49">
  <defs>
    <style>
      .cls-1 {
        fill: #f0f;
      }

      .cls-1, .cls-2 {
        stroke-width: 0px;
      }

      .cls-2 {
        fill: #fff;
      }
    </style>
  </defs>
  <g id="Layer_8" data-name="Layer 8">
    <path class="cls-1" d="M65.8.41c-1.5,0-2.74,1.06-3.03,2.47h-7.03s-1.3,0-1.3,0v100.76H6.5c-.33-1.35-1.54-2.35-3-2.35-1.71,0-3.1,1.39-3.1,3.1s1.39,3.1,3.1,3.1c1.56,0,2.84-1.16,3.05-2.65h49.07s.11,0,.11,0V4.15h7.04c.29,1.4,1.54,2.46,3.03,2.46,1.71,0,3.1-1.39,3.1-3.1s-1.39-3.1-3.1-3.1Z"/>
    <path class="cls-2" d="M65.39,0c-1.5,0-2.74,1.06-3.03,2.47h-7.03s-1.3,0-1.3,0v100.76H6.09c-.33-1.35-1.54-2.35-3-2.35-1.71,0-3.1,1.39-3.1,3.1s1.39,3.1,3.1,3.1c1.56,0,2.84-1.16,3.05-2.65h49.07s.11,0,.11,0V3.73h7.04c.29,1.4,1.54,2.46,3.03,2.46,1.71,0,3.1-1.39,3.1-3.1s-1.39-3.1-3.1-3.1Z"/>
  </g>
</svg>