<?xml version="1.0" encoding="UTF-8"?>
<svg id="Layer_2" data-name="Layer 2" xmlns="http://www.w3.org/2000/svg" viewBox="0 0 41.33 24.12">
  <defs>
    <style>
      .cls-1 {
        fill: #f0f;
      }

      .cls-1, .cls-2 {
        stroke-width: 0px;
      }

      .cls-2 {
        fill: #fff;
      }
    </style>
  </defs>
  <g id="Layer_8" data-name="Layer 8">
    <path class="cls-1" d="M2.52,18.42V4.01s0,0,0,0v-1.44h33.09c.37-1.19,1.47-2.06,2.79-2.06,1.62,0,2.94,1.32,2.94,2.94s-1.32,2.94-2.94,2.94c-1.43,0-2.62-1.02-2.88-2.37H4.22s0,14.34,0,14.34c1.26.33,2.19,1.47,2.19,2.83,0,1.62-1.32,2.94-2.94,2.94s-2.94-1.32-2.94-2.94c0-1.29.83-2.37,1.98-2.76Z"/>
    <path class="cls-2" d="M1.98,17.91V3.5s0,0,0,0v-1.44h33.09C35.44.87,36.54,0,37.86,0c1.62,0,2.94,1.32,2.94,2.94s-1.32,2.94-2.94,2.94c-1.43,0-2.62-1.02-2.88-2.37H3.69s0,14.34,0,14.34c1.26.33,2.19,1.47,2.19,2.83,0,1.62-1.32,2.94-2.94,2.94S0,22.3,0,20.67c0-1.29.83-2.37,1.98-2.76Z"/>
  </g>
</svg>