<?xml version="1.0" encoding="UTF-8"?>
<svg id="Layer_2" data-name="Layer 2" xmlns="http://www.w3.org/2000/svg" viewBox="0 0 54.48 6.24">
  <defs>
    <style>
      .cls-1 {
        fill: #f0f;
      }

      .cls-1, .cls-2 {
        stroke-width: 0px;
      }

      .cls-2 {
        fill: #fff;
      }
    </style>
  </defs>
  <g id="Layer_8" data-name="Layer 8">
    <path class="cls-1" d="M51.64.57c-1.35,0-2.47.94-2.76,2.2H6.16c-.29-1.26-1.41-2.2-2.76-2.2C1.84.57.57,1.84.57,3.4s1.27,2.84,2.84,2.84c1.31,0,2.41-.9,2.73-2.11h42.78c.32,1.21,1.42,2.11,2.73,2.11,1.57,0,2.84-1.27,2.84-2.84s-1.27-2.84-2.84-2.84Z"/>
    <path class="cls-2" d="M51.07,0c-1.35,0-2.47.94-2.76,2.2H5.6c-.29-1.26-1.41-2.2-2.76-2.2C1.27,0,0,1.27,0,2.84s1.27,2.84,2.84,2.84c1.31,0,2.41-.9,2.73-2.11h42.78c.32,1.21,1.42,2.11,2.73,2.11,1.57,0,2.84-1.27,2.84-2.84s-1.27-2.84-2.84-2.84Z"/>
  </g>
</svg>