<?xml version="1.0" encoding="UTF-8"?>
<svg id="Layer_2" data-name="Layer 2" xmlns="http://www.w3.org/2000/svg" viewBox="0 0 39.64 6.32">
  <defs>
    <style>
      .cls-1 {
        fill: #f0f;
      }

      .cls-1, .cls-2 {
        stroke-width: 0px;
      }

      .cls-2 {
        fill: #fff;
      }
    </style>
  </defs>
  <g id="Layer_8" data-name="Layer 8">
    <path class="cls-1" d="M36.69.43c-1.42,0-2.6,1-2.88,2.34H6.34c-.26-1.36-1.46-2.39-2.89-2.39C1.82.38.5,1.7.5,3.33s1.32,2.95,2.95,2.95c1.4,0,2.56-.98,2.87-2.28h27.5c.29,1.33,1.47,2.33,2.88,2.33,1.63,0,2.95-1.32,2.95-2.95s-1.32-2.95-2.95-2.95Z"/>
    <path class="cls-2" d="M36.2.05c-1.42,0-2.6,1-2.88,2.34H5.84c-.26-1.36-1.46-2.39-2.89-2.39C1.32,0,0,1.32,0,2.95s1.32,2.95,2.95,2.95c1.4,0,2.56-.98,2.87-2.28h27.5c.29,1.33,1.47,2.33,2.88,2.33,1.63,0,2.95-1.32,2.95-2.95S37.83.05,36.2.05Z"/>
  </g>
</svg>