<?xml version="1.0" encoding="UTF-8"?>
<svg id="Layer_2" data-name="Layer 2" xmlns="http://www.w3.org/2000/svg" xmlns:xlink="http://www.w3.org/1999/xlink" viewBox="0 0 77.9 118.02">
  <defs>
    <style>
      .cls-1, .cls-2, .cls-3 {
        stroke: #000;
      }

      .cls-1, .cls-2, .cls-4, .cls-5 {
        fill: none;
      }

      .cls-1, .cls-3, .cls-5 {
        stroke-miterlimit: 10;
      }

      .cls-6 {
        fill: #fff;
      }

      .cls-6, .cls-2, .cls-3, .cls-4, .cls-5 {
        stroke-width: 3px;
      }

      .cls-6, .cls-2, .cls-4 {
        stroke-linejoin: round;
      }

      .cls-6, .cls-2, .cls-4, .cls-5 {
        stroke-linecap: round;
      }

      .cls-6, .cls-4, .cls-5 {
        stroke: #fff;
      }

      .cls-3 {
        fill: url(#linear-gradient);
      }
    </style>
    <linearGradient id="linear-gradient" x1="38.95" y1="5.94" x2="38.95" y2="108.73" gradientUnits="userSpaceOnUse">
      <stop offset="0" stop-color="#ff36ff"/>
      <stop offset=".12" stop-color="#f935fb"/>
      <stop offset=".25" stop-color="#eb32f1"/>
      <stop offset=".4" stop-color="#d22de0"/>
      <stop offset=".56" stop-color="#b127c8"/>
      <stop offset=".73" stop-color="#851eaa"/>
      <stop offset=".9" stop-color="#501485"/>
      <stop offset="1" stop-color="#2e0e6d"/>
    </linearGradient>
  </defs>
  <g id="Layer_13" data-name="Layer 13">
    <polygon class="cls-6" points="1.5 116.52 1.88 41.02 39.9 1.5 76.4 41.06 76.4 116.52 39.9 77.79 1.5 116.52"/>
    <polygon class="cls-3" points="4.65 108.54 5 41.37 39.82 6.2 73.24 41.41 73.24 108.54 39.82 74.08 4.65 108.54"/>
    <line class="cls-5" x1="41.12" y1="15.66" x2="42.45" y2="16.99"/>
    <polyline class="cls-4" points="47.17 22.65 67.97 43.44 67.97 61.15"/>
    <polyline class="cls-2" points="4.81 95.56 39.93 59.66 72.74 95.56"/>
    <path class="cls-1" d="M13.77,87.57v11.4"/>
    <line class="cls-1" x1="21.44" y1="79.25" x2="21.44" y2="92.4"/>
    <line class="cls-1" x1="29.33" y1="70.99" x2="29.33" y2="84.4"/>
    <line class="cls-1" x1="39.85" y1="61.71" x2="39.85" y2="73.55"/>
    <line class="cls-1" x1="49.38" y1="70.7" x2="49.38" y2="83.3"/>
    <line class="cls-1" x1="56.95" y1="79.25" x2="56.95" y2="91.63"/>
    <line class="cls-1" x1="65.38" y1="88.23" x2="65.38" y2="99.96"/>
  </g>
</svg>