<?xml version="1.0" encoding="UTF-8"?>
<svg id="Layer_2" data-name="Layer 2" xmlns="http://www.w3.org/2000/svg" viewBox="0 0 236.92 265.21">
  <defs>
    <style>
      .cls-1 {
        fill: #f0f;
        stroke: #fff;
        stroke-miterlimit: 10;
        stroke-width: 5px;
      }
    </style>
  </defs>
  <g id="Layer_11" data-name="Layer 11">
    <g>
      <path class="cls-1" d="M179.74,101.48c10.56,13.91,16.83,31.25,16.83,50.07,0,45.79-37.12,82.91-82.91,82.91S30.75,197.33,30.75,151.54s37.12-82.91,82.91-82.91c8,0,15.73,1.16,23.05,3.27l10.69-26.3c-10.64-3.39-21.98-5.22-33.75-5.22C52.27,40.38,2.5,90.15,2.5,151.54s49.77,111.16,111.16,111.16,111.16-49.77,111.16-111.16c0-25.27-8.44-48.56-22.64-67.23l-22.45,17.17Z"/>
      <path class="cls-1" d="M132.6,92.1c-5.97-1.9-12.33-2.93-18.94-2.93-34.45,0-62.37,27.92-62.37,62.37s27.92,62.37,62.37,62.37,62.37-27.92,62.37-62.37c0-14.18-4.73-27.25-12.7-37.72l-12.59,9.63c5.92,7.81,9.44,17.54,9.44,28.09,0,25.69-20.83,46.52-46.52,46.52s-46.52-20.83-46.52-46.52,20.83-46.52,46.52-46.52c4.49,0,8.83.65,12.94,1.84l6-14.76Z"/>
      <path class="cls-1" d="M113.45,119.51c-18.16.58-32.42,15.78-31.83,33.95s15.78,32.42,33.95,31.83c18.16-.58,32.42-15.78,31.83-33.95-.25-7.81-2.46-12.28-7.19-17.78l-30.56,22.59,9.74-36.32c-.93-.05-5-.36-5.94-.33Z"/>
      <polygon class="cls-1" points="232.78 41.88 175.2 3.79 123.38 135.78 232.78 41.88"/>
    </g>
  </g>
</svg>