<?xml version="1.0" encoding="UTF-8"?>
<svg id="Layer_2" data-name="Layer 2" xmlns="http://www.w3.org/2000/svg" viewBox="0 0 223.72 223.72">
  <defs>
    <style>
      .cls-1 {
        stroke-width: 5px;
      }

      .cls-1, .cls-2 {
        fill: #f0f;
        stroke: #fff;
        stroke-miterlimit: 10;
      }

      .cls-2 {
        stroke-width: 3px;
      }
    </style>
  </defs>
  <g id="Layer_11" data-name="Layer 11">
    <g>
      <path class="cls-1" d="M111.86,2.5C51.46,2.5,2.5,51.46,2.5,111.86s48.96,109.36,109.36,109.36,109.36-48.96,109.36-109.36S172.26,2.5,111.86,2.5ZM111.86,198.4c-47.79,0-86.54-38.74-86.54-86.54S64.07,25.32,111.86,25.32s86.54,38.74,86.54,86.54-38.74,86.54-86.54,86.54Z"/>
      <path class="cls-2" d="M111.86,73.66c-21.1,0-38.2,17.1-38.2,38.2s17.1,38.2,38.2,38.2,38.2-17.1,38.2-38.2-17.1-38.2-38.2-38.2ZM111.86,142.09c-16.69,0-30.23-13.53-30.23-30.23s13.53-30.23,30.23-30.23,30.23,13.53,30.23,30.23-13.53,30.23-30.23,30.23Z"/>
      <circle class="cls-2" cx="111.94" cy="111.98" r="22.06"/>
    </g>
  </g>
</svg>