<?xml version="1.0" encoding="UTF-8"?>
<svg id="Layer_2" data-name="Layer 2" xmlns="http://www.w3.org/2000/svg" viewBox="0 0 561.68 278.62">
  <defs>
    <style>
      .cls-1 {
        fill: none;
        stroke: #fff;
        stroke-miterlimit: 10;
        stroke-width: 10px;
      }

      .cls-2 {
        fill: #d37bfb;
      }

      .cls-2, .cls-3 {
        stroke-width: 0px;
      }

      .cls-3 {
        fill: #fff;
      }
    </style>
  </defs>
  <g id="Layer_12" data-name="Layer 12">
    <g id="Layer_13" data-name="Layer 13">
      <polygon class="cls-2" points="3.92 86.07 453.42 86.07 502.31 139.31 441.42 209.79 0 204.67 24.44 176.95 53.91 148.01 5.47 103.81 3.92 86.07"/>
      <polygon class="cls-2" points="424.22 0 394.43 44.86 497.27 139.31 394.58 243.53 426.66 278.62 545.35 141.26 424.22 0"/>
    </g>
    <polyline class="cls-1" points="4.03 195.16 56.74 148.12 3.92 100.86"/>
    <polyline class="cls-3" points=".75 103.81 459.57 103.81 459.41 86.29 .75 86.07"/>
    <polyline class="cls-3" points=".75 191.91 459.57 191.91 452.68 209.6 .75 209.79"/>
    <polygon class="cls-3" points="521.2 141.71 404.53 29.66 394.43 44.86 493.23 144.88 394.58 243.53 406.42 256.49 521.2 141.71"/>
    <polyline class="cls-3" points="426.66 278.62 561.68 141.63 424.22 0 411.79 18.72 533.26 141.71 412.18 262.78 426.66 278.62"/>
  </g>
</svg>