<?xml version="1.0" encoding="UTF-8"?>
<svg id="Layer_2" data-name="Layer 2" xmlns="http://www.w3.org/2000/svg" viewBox="0 0 335.67 415.88">
  <defs>
    <style>
      .cls-1 {
        stroke: #231f20;
      }

      .cls-1, .cls-2 {
        stroke-miterlimit: 10;
        stroke-width: 5px;
      }

      .cls-1, .cls-3 {
        fill: #fff;
      }

      .cls-4 {
        fill: #ff23ff;
      }

      .cls-4, .cls-3 {
        stroke-width: 0px;
      }

      .cls-2 {
        fill: none;
        stroke: #000;
      }
    </style>
  </defs>
  <g id="Layer_16" data-name="Layer 16">
    <path class="cls-4" d="M287.75,16.33H50.48S16.02,71.06,8.42,137.74c-.94,8.26-1.47,16.71-1.47,25.26,0,108.13,57.6,252.87,174.32,252.87s154.4-165.78,154.4-246.34c0-102.95-47.92-153.21-47.92-153.21Z"/>
    <path class="cls-3" d="M280.8,7.39H43.53S9.07,62.12,1.47,128.8c-.94,8.26-1.47,16.71-1.47,25.26,0,108.13,57.6,252.87,174.32,252.87s154.4-165.78,154.4-246.34c0-102.95-47.92-153.21-47.92-153.21Z"/>
    <path class="cls-4" d="M164.25,0l-.53,126.74L.6,128c0-3.3,13.26-78.08,42.93-120.61l120.47.29.16,4.82"/>
    <line class="cls-1" x1="327.02" y1="127.71" x2="1.47" y2="127.71"/>
    <g id="Layer_19" data-name="Layer 19">
      <line class="cls-2" x1="164.25" y1="127.03" x2="163.99" y2="7.68"/>
    </g>
    <ellipse class="cls-1" cx="164.35" cy="72.35" rx="12.63" ry="36.13"/>
  </g>
</svg>