<?xml version="1.0" encoding="UTF-8"?>
<svg id="Layer_2" data-name="Layer 2" xmlns="http://www.w3.org/2000/svg" viewBox="0 0 447.59 431.43">
  <defs>
    <style>
      .cls-1 {
        fill: #fff;
      }

      .cls-1, .cls-2 {
        stroke-width: 0px;
      }

      .cls-2 {
        fill: #e680fb;
      }
    </style>
  </defs>
  <g id="back_button">
    <g id="not_selected">
      <polygon class="cls-2" points="289.22 357.45 142.22 210.44 283.36 69.3 283.37 68.98 247.23 31.93 70.31 208.84 256.18 394.71 289.22 357.45"/>
      <polygon class="cls-2" points="348.04 302.86 255.74 210.56 339.63 126.67 307.27 93.49 191.63 209.13 316.7 334.2 348.04 302.86"/>
      <path class="cls-2" d="M227.62,431.43c-58.71,0-113.92-22.18-155.46-62.46C30.56,328.64,7.65,274.99,7.65,217.92S30.56,107.2,72.16,66.86C113.7,26.58,168.91,4.4,227.62,4.4s113.92,22.18,155.46,62.46c41.6,40.34,64.51,93.98,64.51,151.06s-22.91,110.72-64.51,151.06c-41.54,40.28-96.75,62.46-155.46,62.46ZM227.62,19.4C114.6,19.4,22.65,108.46,22.65,217.92s91.95,198.51,204.97,198.51,204.97-89.05,204.97-198.51S340.64,19.4,227.62,19.4Z"/>
      <polygon class="cls-1" points="278.01 354.89 132.33 209.2 272.21 69.32 272.21 69.01 236.39 32.29 61.06 207.62 245.27 391.83 278.01 354.89"/>
      <polygon class="cls-1" points="336.31 300.79 244.83 209.32 327.97 126.18 295.9 93.3 181.3 207.91 305.25 331.86 336.31 300.79"/>
      <path class="cls-1" d="M219.97,427.03c-58.71,0-113.92-22.18-155.46-62.46C22.91,324.24,0,270.59,0,213.51S22.91,102.79,64.51,62.46C106.05,22.18,161.26,0,219.97,0s113.92,22.18,155.46,62.46c41.6,40.34,64.51,93.98,64.51,151.06s-22.91,110.72-64.51,151.06c-41.54,40.28-96.75,62.46-155.46,62.46ZM219.97,15C106.95,15,15,104.05,15,213.51s91.95,198.51,204.97,198.51,204.97-89.05,204.97-198.51S333,15,219.97,15Z"/>
    </g>
  </g>
</svg>