<?xml version="1.0" encoding="UTF-8"?>
<svg id="Layer_2" data-name="Layer 2" xmlns="http://www.w3.org/2000/svg" viewBox="0 0 468.96 450.88">
  <defs>
    <style>
      .cls-1 {
        fill: #f9f;
      }

      .cls-1, .cls-2, .cls-3 {
        stroke-width: 0px;
      }

      .cls-2 {
        fill: #fff;
      }

      .cls-3 {
        fill: #e680fb;
      }
    </style>
  </defs>
  <g id="back_button">
    <g>
      <path class="cls-2" d="M229.83,450.88c-61.35,0-119.03-23.17-162.43-65.25C23.94,343.49,0,287.44,0,227.81S23.94,112.14,67.4,70C110.8,27.92,168.48,4.75,229.83,4.75s119.03,23.17,162.43,65.25c43.46,42.14,67.4,98.19,67.4,157.81s-23.94,115.67-67.4,157.81c-43.4,42.08-101.08,65.25-162.43,65.25ZM229.83,19.75C111.37,19.75,15,113.09,15,227.81s96.37,208.07,214.83,208.07,214.83-93.34,214.83-208.07S348.28,19.75,229.83,19.75Z"/>
      <polygon class="cls-2" points="283.94 376.71 126.89 219.65 277.68 68.86 277.69 68.53 239.08 28.94 50.07 217.95 248.65 416.52 283.94 376.71"/>
      <polygon class="cls-2" points="329.58 318.39 230.97 219.78 320.59 130.15 286.02 94.71 162.48 218.25 296.09 351.87 329.58 318.39"/>
      <polygon class="cls-3" points="303.37 375.59 146.31 218.53 297.11 67.74 297.11 67.41 258.5 27.82 69.5 216.83 268.07 415.4 303.37 375.59"/>
      <polygon class="cls-3" points="349 317.27 250.39 218.66 340.01 129.03 305.44 93.59 181.9 217.13 315.52 350.75 349 317.27"/>
      <path class="cls-1" d="M239.14,446.13c-61.35,0-119.03-23.17-162.43-65.25C33.25,338.74,9.31,282.7,9.31,223.07s23.94-115.67,67.4-157.81C120.11,23.17,177.79,0,239.14,0s119.03,23.17,162.43,65.25c43.46,42.14,67.4,98.19,67.4,157.81s-23.94,115.67-67.4,157.81c-43.4,42.08-101.08,65.25-162.43,65.25ZM239.14,15C120.68,15,24.31,108.34,24.31,223.07s96.37,208.07,214.83,208.07,214.83-93.34,214.83-208.07S357.59,15,239.14,15Z"/>
    </g>
  </g>
</svg>