<?xml version="1.0" encoding="UTF-8"?>
<svg id="Layer_2" data-name="Layer 2" xmlns="http://www.w3.org/2000/svg" viewBox="0 0 471.46 453.38">
  <defs>
    <style>
      .cls-1 {
        fill: #f9f;
      }

      .cls-1, .cls-2 {
        stroke: #fff;
        stroke-miterlimit: 10;
        stroke-width: 5px;
      }

      .cls-2 {
        fill: #b227d2;
      }

      .cls-3 {
        fill: #e680fb;
        stroke-width: 0px;
      }
    </style>
  </defs>
  <g id="back_button">
    <g>
      <path class="cls-3" d="M229.83,453.38c-61.35,0-119.03-23.17-162.43-65.25C23.94,345.99,0,289.94,0,230.31S23.94,114.64,67.4,72.5C110.8,30.42,168.48,7.25,229.83,7.25s119.03,23.17,162.43,65.25c43.46,42.14,67.4,98.19,67.4,157.81s-23.94,115.67-67.4,157.81c-43.4,42.08-101.08,65.25-162.43,65.25ZM229.83,22.25C111.37,22.25,15,115.59,15,230.31s96.37,208.07,214.83,208.07,214.83-93.34,214.83-208.07S348.28,22.25,229.83,22.25Z"/>
      <polygon class="cls-1" points="283.94 379.21 126.89 222.15 277.68 71.36 277.69 71.03 239.08 31.44 50.07 220.45 248.65 419.02 283.94 379.21"/>
      <polygon class="cls-1" points="329.58 320.89 230.97 222.28 320.59 132.65 286.02 97.21 162.48 220.75 296.09 354.37 329.58 320.89"/>
      <polygon class="cls-2" points="280.9 371.43 130.84 221.37 273.3 78.9 241.66 45.06 66.78 219.94 251.63 404.79 280.9 371.43"/>
      <path class="cls-2" d="M239.14,448.63c-61.35,0-119.03-23.17-162.43-65.25C33.25,341.24,9.31,285.2,9.31,225.57s23.94-115.67,67.4-157.81C120.11,25.67,177.79,2.5,239.14,2.5s119.03,23.17,162.43,65.25c43.46,42.14,67.4,98.19,67.4,157.81s-23.94,115.67-67.4,157.81c-43.4,42.08-101.08,65.25-162.43,65.25ZM239.14,17.5C120.68,17.5,24.31,110.84,24.31,225.57s96.37,208.07,214.83,208.07,214.83-93.34,214.83-208.07S357.59,17.5,239.14,17.5Z"/>
    </g>
    <polygon class="cls-2" points="326.83 312.46 235.81 221.43 317.07 140.16 289.02 112.61 181.42 220.22 300.95 339.75 326.83 312.46"/>
  </g>
</svg>