<?xml version="1.0" encoding="UTF-8"?>
<svg id="Layer_2" data-name="Layer 2" xmlns="http://www.w3.org/2000/svg" viewBox="0 0 393.33 567.45">
  <defs>
    <style>
      .cls-1 {
        fill: #f8d6ff;
      }

      .cls-1, .cls-2, .cls-3, .cls-4, .cls-5, .cls-6 {
        stroke-width: 0px;
      }

      .cls-2 {
        fill: #8407e3;
      }

      .cls-3 {
        fill: #a001c7;
      }

      .cls-4 {
        fill: #ff08ff;
      }

      .cls-5 {
        fill: #ff09ff;
      }

      .cls-6 {
        fill: #fff;
      }

      .cls-7 {
        fill: none;
        stroke: #fff;
        stroke-miterlimit: 10;
        stroke-width: 13px;
      }
    </style>
  </defs>
  <g id="Layer_32" data-name="Layer 32">
    <circle class="cls-5" cx="198.37" cy="205.02" r="194.95"/>
    <g id="Layer_33" data-name="Layer 33">
      <g>
        <polygon class="cls-4" points="111.93 370.44 30.56 507.86 138.84 567.45 202.18 402.21 273.32 556.58 389.6 520.1 295.86 344.05 111.93 370.44"/>
        <polygon class="cls-3" points="101.58 358.01 22.99 505.49 128.49 555.01 199.54 405.37 269.52 558.24 378.24 510.87 284.59 339.71 101.58 358.01"/>
      </g>
    </g>
    <g id="Layer_34" data-name="Layer 34">
      <path class="cls-7" d="M104.12,543.13l78.58-166.1s-60.21-21.99-60.21-19.37-79.37,155.84-79.37,155.84"/>
      <path class="cls-7" d="M293.41,546l-79.29-171.14s58.42-24.58,58.35-21.96,88.38,164.55,88.38,164.55"/>
    </g>
    <circle class="cls-1" cx="194.95" cy="194.95" r="194.95"/>
    <circle class="cls-2" cx="194.95" cy="194.95" r="169.5"/>
    <circle class="cls-3" cx="194.95" cy="194.95" r="153.55"/>
    <polygon class="cls-6" points="198.36 78.9 226 163.97 315.45 163.97 243.09 216.54 270.73 301.62 198.36 249.04 126 301.62 153.64 216.54 81.27 163.97 170.72 163.97 198.36 78.9"/>
  </g>
</svg>