<?xml version="1.0" encoding="UTF-8"?>
<svg id="Layer_2" data-name="Layer 2" xmlns="http://www.w3.org/2000/svg" viewBox="0 0 545.79 348.46">
  <defs>
    <style>
      .cls-1 {
        fill: #020202;
      }

      .cls-1, .cls-2, .cls-3, .cls-4 {
        stroke-width: 0px;
      }

      .cls-2 {
        fill: #fffffb;
      }

      .cls-3 {
        fill: #f010fe;
      }

      .cls-4 {
        fill: #8406e6;
      }
    </style>
  </defs>
  <g id="Layer_18" data-name="Layer 18">
    <g id="Layer_21" data-name="Layer 21">
      <g>
        <polygon class="cls-3" points="15.66 40.21 545.79 8.32 545.79 317.9 15.66 348.46 15.66 40.21"/>
        <polygon class="cls-4" points="0 31.89 530.13 0 530.13 309.58 0 340.14 0 31.89"/>
      </g>
    </g>
    <g id="Layer_22" data-name="Layer 22">
      <polygon class="cls-2" points="144.73 277.77 174.96 242.33 416.81 221.48 448.08 249.63 510.63 245.46 510.63 60.94 49.87 82.84 49.87 286.11 144.73 277.77"/>
      <polygon class="cls-2" points="169.52 268.87 423.1 250.89 404.25 234.67 184.22 250.7 169.52 268.87"/>
      <path class="cls-2" d="M52.32,73.95c2.05,0,452.84-24.59,452.84-24.59l-16.9-27.15L68.2,48.08l-15.88,25.87Z"/>
    </g>
    <g id="Layer_24" data-name="Layer 24">
      <rect class="cls-1" x="79.25" y="111.76" width="401.59" height="107.05" rx="53.53" ry="53.53" transform="translate(-11.68 21.62) rotate(-4.33)"/>
    </g>
    <g id="Layer_23" data-name="Layer 23">
      <path class="cls-2" d="M213.01,176.27l142.8-12.44-17.18-45.03-111.99,8.89s-15.41,49.18-13.63,48.59h0Z"/>
    </g>
    <g id="Layer_25" data-name="Layer 25">
      <path class="cls-2" d="M166.65,214.98c-5.48-6.62-6.44-14.86-2.16-18.41,4.29-3.55,12.2-1.06,17.68,5.56.3.36.58.73.85,1.1,5.96-7.51,9.51-16.9,9.51-27.09,0-7.76-2.06-15.06-5.67-21.42-.54.61-1.11,1.21-1.73,1.78-6.29,5.84-14.28,7.45-17.84,3.62-3.56-3.84-1.34-11.68,4.95-17.51.72-.67,1.47-1.28,2.23-1.83-7.8-5.8-17.57-9.26-28.18-9.26-14.5,0-27.44,6.45-35.91,16.53,1.56.2,3.14.65,4.66,1.39,6.76,3.28,9.89,10.8,6.98,16.78-2.91,5.99-10.74,8.18-17.51,4.9-1.43-.69-2.68-1.58-3.77-2.6-.44,2.48-.69,5.02-.69,7.62,0,11.6,4.59,22.16,12.11,30.1,4.38-5.84,10.84-8.43,14.93-5.78,4.21,2.72,4.38,9.98.53,16.5,5.71,2.44,12.02,3.8,18.66,3.8,7.61,0,14.78-1.78,21.11-4.93-.25-.28-.51-.56-.76-.85Z"/>
    </g>
    <g id="Layer_27" data-name="Layer 27">
      <path class="cls-2" d="M461.1,155.9c-9.03.68-16.61-2.08-16.92-6.18-.31-4.1,6.76-7.98,15.79-8.66.15-.01.3-.01.45-.02-4.1-13.05-14.99-23.09-28.53-26-.34,7.5-3.32,13.29-7.39,13.59-4.27.32-8.26-5.49-9.55-13.42-15.92,3.76-28.01,17.43-29.39,34.14.39-.04.78-.09,1.18-.12,9.23-.7,17,2.59,17.36,7.35.36,4.76-6.83,9.18-16.06,9.88,0,0-.01,0-.02,0,5.02,12.91,16.82,22.43,31.04,24.18.79-7.23,4.41-12.72,9.15-13.08,4.45-.34,8.6,3.96,10.64,10.31,12.77-5.45,21.98-17.63,23.19-32.08-.31.03-.62.07-.94.09Z"/>
    </g>
  </g>
</svg>