<?xml version="1.0" encoding="UTF-8"?>
<svg id="Layer_2" data-name="Layer 2" xmlns="http://www.w3.org/2000/svg" viewBox="0 0 293.35 280.02">
  <defs>
    <style>
      .cls-1 {
        fill: #f0f;
      }

      .cls-1, .cls-2 {
        stroke-width: 0px;
      }

      .cls-2 {
        fill: #fff;
      }
    </style>
  </defs>
  <g id="Layer_14" data-name="Layer 14">
    <g>
      <path class="cls-1" d="M201.01,55.57h-114.15l.39-47.53L4.26,92.97l85.32,76.75v-56.88l114.45.99c31.7,0,29.93,34.91,29.93,55.82,0,50.47-23.85,50.41-23.85,50.41l-40.66-.2v60.12h56.88c1.68,0,3.42-.15,5.21-.45-5.95-9.61-9.4-20.94-9.4-33.08,0-34.76,28.18-62.94,62.94-62.94,2.37,0,4.71.14,7.01.4.81-7.72,1.25-15.95,1.25-24.7,0-107.13-92.34-103.63-92.34-103.63Z"/>
      <rect class="cls-1" x="124.09" y="219.86" width="39.64" height="60.13"/>
      <rect class="cls-1" x="99.65" y="219.86" width="17.8" height="60.16"/>
    </g>
    <g>
      <path class="cls-2" d="M196.75,47.53h-114.15l.39-47.53L0,84.93l85.32,76.75v-56.88l114.45.99c31.7,0,29.93,34.91,29.93,55.82,0,50.47-23.85,50.41-23.85,50.41l-40.66-.2v60.12h56.88c1.68,0,3.42-.15,5.21-.45-5.95-9.61-9.4-20.94-9.4-33.08,0-34.76,28.18-62.94,62.94-62.94,2.37,0,4.71.14,7.01.4.81-7.72,1.25-15.95,1.25-24.7,0-107.13-92.34-103.63-92.34-103.63Z"/>
      <rect class="cls-2" x="119.83" y="211.82" width="39.64" height="60.13"/>
      <rect class="cls-2" x="95.38" y="211.82" width="17.8" height="60.16"/>
    </g>
  </g>
</svg>