<?xml version="1.0" encoding="UTF-8"?>
<svg id="Layer_2" data-name="Layer 2" xmlns="http://www.w3.org/2000/svg" viewBox="0 0 347.1 547.16">
  <defs>
    <style>
      .cls-1 {
        fill: #f8d6ff;
      }

      .cls-1, .cls-2, .cls-3 {
        stroke-width: 0px;
      }

      .cls-2 {
        fill: #000;
      }

      .cls-3 {
        fill: #b227d2;
      }
    </style>
  </defs>
  <g id="level_select_assets">
    <g id="Layer_4" data-name="Layer 4">
      <g>
        <path class="cls-3" d="M293.9,213.27H54.53c-24.69,0-44.71,20.02-44.71,44.71v244.47c0,24.69,20.02,44.71,44.71,44.71h239.37c24.69,0,44.71-20.02,53.2-43.7v-244.47c-8.49-25.71-28.51-45.73-53.2-45.73Z"/>
        <path class="cls-3" d="M129.11,192.59c.03-.51.06-1.01.06-1.53v-120.56c0-12.85,10.42-23.27,23.27-23.27h57.01c12.85,0,23.27,10.42,23.27,23.27v120.56c0,.51.02,1.02.06,1.53h46.44c.03-.51.06-1.01.06-1.53V23.27c0-12.85-10.42-23.27-23.27-23.27H100.92c-12.85,0-23.27,10.42-23.27,23.27v167.79c0,.51.02,1.02.06,1.53h51.4Z"/>
      </g>
      <g>
        <rect class="cls-1" y="213.27" width="328.8" height="333.89" rx="44.71" ry="44.71"/>
        <path class="cls-1" d="M110.13,192.59c.03-.51.06-1.01.06-1.53v-120.56c0-12.85,10.42-23.27,23.27-23.27h57.01c12.85,0,23.27,10.42,23.27,23.27v120.56c0,.51.02,1.02.06,1.53h46.44c.03-.51.06-1.01.06-1.53V23.27c0-12.85-10.42-23.27-23.27-23.27H81.94c-12.85,0-23.27,10.42-23.27,23.27v167.79c0,.51.02,1.02.06,1.53h51.4Z"/>
      </g>
      <g>
        <path class="cls-3" d="M136.13,502.18c-11.39,0-19.85-10.54-17.39-21.66,5.63-25.44,15.66-68.37,26.05-101.39-21.27-7.96-36.42-28.47-36.42-52.52,0-29.31,22.49-53.36,51.16-55.84-1.1-.06-2.21-.1-3.33-.1-30.96,0-56.06,25.1-56.06,56.06,0,24.05,15.15,44.56,36.42,52.52-10.39,33.02-20.42,75.94-26.05,101.39-2.46,11.12,6,21.66,17.39,21.66h57.16c.69,0,1.37-.04,2.04-.11h-50.96Z"/>
        <path class="cls-2" d="M108.36,326.62c0,24.05,15.15,44.56,36.42,52.52-10.39,33.02-20.42,75.94-26.05,101.39-2.46,11.12,6,21.66,17.39,21.66h50.96c10.14-1.14,17.43-10.74,15.46-21.04-4.92-25.78-13.83-70.02-22.97-103.45,19.28-8.87,32.67-28.35,32.67-50.96,0-29.84-23.32-54.23-52.73-55.96-28.66,2.48-51.16,26.54-51.16,55.84Z"/>
      </g>
    </g>
  </g>
</svg>