<?xml version="1.0" encoding="UTF-8"?>
<svg id="Layer_2" data-name="Layer 2" xmlns="http://www.w3.org/2000/svg" viewBox="0 0 413.88 413.88">
  <defs>
    <style>
      .cls-1 {
        fill: #f8d6ff;
      }

      .cls-1, .cls-2, .cls-3 {
        stroke-width: 0px;
      }

      .cls-2 {
        fill: #af1ed1;
      }

      .cls-3 {
        fill: #fff;
      }
    </style>
  </defs>
  <g id="Layer_17" data-name="Layer 17">
    <g id="Layer_20" data-name="Layer 20">
      <g>
        <circle class="cls-3" cx="206.94" cy="206.94" r="206.94"/>
        <circle class="cls-1" cx="210.34" cy="200.14" r="197.87"/>
      </g>
    </g>
    <path class="cls-2" d="M164.33,124.46s1.12-9.23-3.21-21.07c-8.17-14.1-3.42-22.33,8.43-26.15,28.79,0,30.99,35,28.34,59.61,0,0,58.44,23.67,31.45,54.86-19.5,18-36.75-14.25-36.75-14.25,0,0-3.06,57.9-37,43.23-19.39-8.7-15.92-30.09-4.2-41.49,14.25-13.86,12.54-24.22,12.54-24.22,0,0-5.85-8.13-20.88-8.13-12.86,0-47.55-.55-32.34-27.09,10.23-12.99,28.75-6.91,53.63,4.7Z"/>
    <path class="cls-2" d="M357.42,221.08c14.03,6.8,17.31,26.46-16.68,62.64-9.93,10.57-21.88,19.03-35.18,24.78-57.42,24.84-96.62,8.21-97.71-11.15s21.93-23.7,39.65-20.46c16.89,3.09,63.36-5.11,80.64-42.18,3.86-8.29,11.72-14.14,20.85-14.7,3.98-.25,7.25.31,8.43,1.06Z"/>
    <path class="cls-2" d="M340.55,106.73s42.62,39.55,17.35,58.01c-.88.47-5.91,1.38-6.75,1.93-16.73.31-21.65-37.53-21.65-37.53,0,0-26.19,44.28-47.83,25.35-16.56-15.38,27.04-43.6,27.04-43.6,0,0-9.46-7.1-19.77-11.15-25.34-12.34-29.18-20.24-24.17-28.9,1.86-3.21,6.46-5.82,10.65-5.91,8.06-.18,30.5,7.81,38.19,17.58.29.44-4.55-6.92-5.61-14.81-2.19-16.23,7.63-20.41,18.53-16.91,18.09,5.82,20.49,43.63,14.03,55.95Z"/>
  </g>
</svg>