<?xml version="1.0" encoding="UTF-8"?>
<svg id="Layer_2" data-name="Layer 2" xmlns="http://www.w3.org/2000/svg" viewBox="0 0 598.66 600.8">
  <defs>
    <style>
      .cls-1 {
        fill: #000;
      }

      .cls-1, .cls-2 {
        stroke-width: 0px;
      }

      .cls-3 {
        stroke: #231f20;
        stroke-miterlimit: 10;
        stroke-width: 15px;
      }

      .cls-3, .cls-2 {
        fill: #fff;
      }
    </style>
  </defs>
  <g id="Layer_31" data-name="Layer 31">
    <polyline class="cls-1" points="200.47 .04 200.49 201.32 .07 201.6 .2 236.87 226.94 237.36 227.04 0"/>
    <polyline class="cls-2" points="153.44 .02 152.88 164.77 .07 164.77 .07 181.78 162.21 182.16 162.69 .11"/>
    <polyline class="cls-2" points="162.69 .11 162.21 182.16 .07 181.78 .07 201.12 .07 201.6 200.49 201.32 200.47 .04"/>
    <polyline class="cls-1" points="435.98 .11 436.45 182.16 598.66 181.78 598.46 236.87 371.72 237.36 371.62 0"/>
    <polyline class="cls-2" points="445.22 .02 445.78 164.77 598.59 164.77 598.59 201.6 398.17 201.32 398.19 .02"/>
    <polygon class="cls-1" points="162.21 418.64 0 419.02 .2 363.93 226.94 363.44 227.04 600.8 162.69 600.69 162.21 418.64"/>
    <polygon class="cls-2" points="152.88 436.03 .07 436.03 .07 399.2 200.49 399.48 200.47 600.78 153.44 600.78 152.88 436.03"/>
    <polygon class="cls-1" points="436.45 418.64 598.66 419.02 598.46 363.93 371.72 363.44 371.62 600.8 435.98 600.69 436.45 418.64"/>
    <polygon class="cls-2" points="445.78 436.03 598.59 436.03 598.59 399.2 398.17 399.48 398.19 600.78 445.22 600.78 445.78 436.03"/>
    <circle class="cls-3" cx="294.69" cy="300.22" r="35.24"/>
  </g>
</svg>