<?xml version="1.0" encoding="UTF-8"?>
<svg id="Layer_2" data-name="Layer 2" xmlns="http://www.w3.org/2000/svg" viewBox="0 0 510.56 510.75">
  <defs>
    <style>
      .cls-1 {
        fill: #000;
      }

      .cls-1, .cls-2 {
        stroke-width: 0px;
      }

      .cls-2 {
        fill: #fff;
      }
    </style>
  </defs>
  <g id="Layer_31" data-name="Layer 31">
    <g>
      <polygon class="cls-1" points="202.78 8.07 136.34 8.07 136.34 151.51 6.12 151.51 6.12 205.55 202.78 205.55 202.78 151.58 202.78 151.58 202.78 8.07"/>
      <polygon class="cls-1" points="313.84 8.1 380.28 8.1 380.28 151.54 510.5 151.54 510.5 205.58 313.84 205.58 313.84 151.61 313.84 151.61 313.84 8.1"/>
      <polygon class="cls-1" points="202.76 510.75 136.32 510.75 136.32 367.3 6.1 367.3 6.1 313.27 202.76 313.27 202.76 367.24 202.76 367.24 202.76 510.75"/>
      <polygon class="cls-1" points="313.9 510.57 380.34 510.57 380.34 367.12 510.56 367.12 510.56 313.09 313.9 313.09 313.9 367.06 313.9 367.06 313.9 510.57"/>
      <circle class="cls-1" cx="259.85" cy="258.45" r="36.48"/>
    </g>
    <polygon class="cls-2" points="196.67 0 130.24 0 130.24 143.44 .02 143.44 .02 197.48 196.67 197.48 196.67 143.51 196.67 143.51 196.67 0"/>
    <polygon class="cls-2" points="307.74 .03 374.17 .03 374.17 143.47 504.39 143.47 504.39 197.51 307.74 197.51 307.74 143.54 307.74 143.54 307.74 .03"/>
    <polygon class="cls-2" points="196.66 502.68 130.22 502.68 130.22 359.23 0 359.23 0 305.2 196.66 305.2 196.66 359.17 196.66 359.17 196.66 502.68"/>
    <polygon class="cls-2" points="307.79 502.49 374.23 502.49 374.23 359.05 504.45 359.05 504.45 305.02 307.8 305.02 307.8 358.99 307.79 358.99 307.79 502.49"/>
    <circle class="cls-2" cx="253.75" cy="250.38" r="36.48"/>
  </g>
</svg>