<?xml version="1.0" encoding="UTF-8"?>
<svg id="Layer_2" data-name="Layer 2" xmlns="http://www.w3.org/2000/svg" viewBox="0 0 459.28 454.31">
  <defs>
    <style>
      .cls-1 {
        fill: #000;
      }

      .cls-1, .cls-2 {
        stroke-width: 0px;
      }

      .cls-3 {
        stroke: #231f20;
        stroke-miterlimit: 10;
        stroke-width: 15px;
      }

      .cls-3, .cls-2 {
        fill: #fff;
      }
    </style>
  </defs>
  <g id="Layer_31" data-name="Layer 31">
    <circle class="cls-3" cx="229.44" cy="227.06" r="35.24"/>
    <g>
      <polygon class="cls-1" points="160.4 .04 160.42 161.08 .06 161.3 .16 189.52 181.58 189.91 181.66 0 160.4 .04"/>
      <polygon class="cls-1" points="0 145.45 .06 160.92 .06 145.45 0 145.45"/>
      <polygon class="cls-2" points=".06 161.3 .06 161.3 .06 160.92 .06 161.3"/>
      <polygon class="cls-2" points="130.17 .09 160.4 .04 160.4 .01 122.77 .01 122.32 131.83 .06 131.83 .06 145.45 129.79 145.75 130.17 .09"/>
      <polygon class="cls-2" points="160.4 .04 130.17 .09 129.79 145.75 .06 145.45 .06 160.92 .06 161.3 160.42 161.08 160.4 .04"/>
    </g>
    <polygon class="cls-1" points="329.49 145.75 459.28 145.45 459.12 189.52 277.7 189.91 277.62 0 329.11 .09 329.49 145.75"/>
    <polygon class="cls-2" points="336.96 131.83 459.23 131.83 459.23 161.3 298.86 161.08 298.88 .01 336.51 .01 336.96 131.83"/>
    <polygon class="cls-1" points="129.79 308.56 0 308.86 .16 264.79 181.58 264.39 181.66 454.31 130.17 454.22 129.79 308.56"/>
    <polygon class="cls-2" points="122.32 322.47 .06 322.47 .06 293 160.42 293.23 160.4 454.29 122.77 454.29 122.32 322.47"/>
    <polygon class="cls-1" points="329.49 308.56 459.28 308.86 459.12 264.79 277.7 264.39 277.62 454.31 329.11 454.22 329.49 308.56"/>
    <polygon class="cls-2" points="336.96 322.47 459.23 322.47 459.23 293 298.86 293.23 298.88 454.29 336.51 454.29 336.96 322.47"/>
  </g>
</svg>