<?xml version="1.0" encoding="UTF-8"?>
<svg id="Layer_2" data-name="Layer 2" xmlns="http://www.w3.org/2000/svg" viewBox="0 0 465.13 463.43">
  <defs>
    <style>
      .cls-1 {
        fill: #000;
      }

      .cls-1, .cls-2 {
        stroke-width: 0px;
      }

      .cls-2 {
        fill: #fff;
      }
    </style>
  </defs>
  <g id="Layer_31" data-name="Layer 31">
    <g>
      <polygon class="cls-1" points="136.45 149.7 6.23 149.7 6.23 203.73 202.89 203.73 202.89 149.76 202.89 149.76 202.89 6.25 136.45 6.25 136.45 149.7"/>
      <polygon class="cls-1" points="334.91 149.7 334.91 6.25 268.48 6.25 268.48 149.76 268.48 149.76 268.48 203.73 465.13 203.73 465.13 149.7 334.91 149.7"/>
      <polygon class="cls-1" points="202.89 265.95 6.23 265.95 6.23 319.99 136.45 319.99 136.45 463.43 202.89 463.43 202.89 319.92 202.89 319.92 202.89 265.95"/>
      <polygon class="cls-1" points="268.48 319.92 268.48 319.92 268.48 463.43 334.91 463.43 334.91 319.99 465.13 319.99 465.13 265.95 268.48 265.95 268.48 319.92"/>
      <circle class="cls-1" cx="236.06" cy="235.35" r="29.86" transform="translate(-97.28 235.85) rotate(-45)"/>
    </g>
    <polygon class="cls-2" points="196.66 0 130.22 0 130.22 143.44 0 143.44 0 197.48 196.66 197.48 196.66 143.51 196.66 143.51 196.66 0"/>
    <polygon class="cls-2" points="262.24 457.17 328.68 457.17 328.68 313.73 458.9 313.73 458.9 259.7 262.24 259.7 262.24 313.67 262.24 313.67 262.24 457.17"/>
    <circle class="cls-2" cx="229.82" cy="229.09" r="29.86"/>
    <g>
      <polygon class="cls-2" points="130.22 143.44 0 143.44 0 197.48 196.66 197.48 196.66 143.51 196.66 143.51 196.66 0 130.22 0 130.22 143.44"/>
      <polygon class="cls-2" points="328.68 143.44 328.68 0 262.24 0 262.24 143.51 262.24 143.51 262.24 197.48 458.9 197.48 458.9 143.44 328.68 143.44"/>
      <polygon class="cls-2" points="196.66 259.7 0 259.7 0 313.73 130.22 313.73 130.22 457.17 196.66 457.17 196.66 313.67 196.66 313.67 196.66 259.7"/>
      <polygon class="cls-2" points="262.24 313.67 262.24 313.67 262.24 457.17 328.68 457.17 328.68 313.73 458.9 313.73 458.9 259.7 262.24 259.7 262.24 313.67"/>
      <circle class="cls-2" cx="229.82" cy="229.09" r="29.86" transform="translate(-94.68 229.61) rotate(-45)"/>
    </g>
  </g>
</svg>